<svg height='100px'
     width='100px'
     xmlns="http://www.w3.org/2000/svg"
     version="1.1"
     x="0px"
     y="0px"
     viewBox="0 0 100 100"
     style="enable-background:new 0 0 100 100;"
     xml:space="preserve">
  <path d="M72.8,29.9H27.2c-11.1,0-20.1,9-20.1,20.1v0c0,11.1,9,20.1,20.1,20.1h45.6c11.1,0,20.1-9,20.1-20.1v0   C92.9,38.9,83.8,29.9,72.8,29.9z M72.8,67.3H27.2C17.7,67.3,10,59.5,10,50c0-9.5,7.7-17.3,17.3-17.3h45.6C82.3,32.7,90,40.5,90,50   C90,59.5,82.3,67.3,72.8,67.3z" />
  <circle cx="27.2"
          cy="50"
          r="14.7"
  />
</svg>
